<svg xmlns="http://www.w3.org/2000/svg" viewBox="0 0 32 32" width="32" height="32">
  <!-- Left half of trophy cup (darker gray) -->
  <path d="M16 3 L8 3 L8 5 L6 5 L6 13 C6 17.5 9.5 21 14 21.8 L14 24 L10 24 L10 28 L16 28 L16 21.8 L16 3 Z"
        fill="#808080"/>
  <!-- Right half of trophy cup (lighter gray) -->
  <path d="M16 3 L24 3 L24 5 L26 5 L26 13 C26 17.5 22.5 21 18 21.8 L18 24 L22 24 L22 28 L16 28 L16 21.8 L16 3 Z"
        fill="#b0b0b0"/>
  <!-- Handles -->
  <path d="M6 5 L6 13 C6 13 4 13 4 10 L4 7 C4 5.3 5.3 5 6 5 Z"
        fill="#696969"/>
  <path d="M26 5 L26 13 C26 13 28 13 28 10 L28 7 C28 5.3 26.7 5 26 5 Z"
        fill="#c8c8c8"/>
  <!-- Base pedestal (darker) -->
  <rect x="9" y="28" width="14" height="2" rx="1" fill="#5a5a5a"/>
  <!-- Crack / jagged split line down the center -->
  <polyline
    points="16,3 15.2,6.5 16.8,9.5 15.5,13 17,16 15.8,19.5 16,21.8"
    fill="none"
    stroke="#3a3a3a"
    stroke-width="1.2"
    stroke-linejoin="round"
    stroke-linecap="round"/>
</svg>
